<svg xmlns="http://www.w3.org/2000/svg" width="160" height="36" viewBox="0 0 160 36" fill="none"><g id="Logo Fuertafit"><path id="Vector" d="M40.5862 11.1168C40.2936 11.5027 40.0971 11.9945 39.9939 12.5916L39.8399 13.813H42.7107L42.2851 16.8805H39.4143L38.1682 25.8651H34.5122L35.7456 16.8805H33.583L34.0077 13.813H36.1704L36.4022 12.0064C36.6159 10.4119 37.2028 9.24255 38.1591 8.49741C39.1163 7.75227 40.3589 7.37924 41.8857 7.37924C42.5043 7.37924 43.0576 7.43958 43.5466 7.56118L43.1599 10.6286C43.006 10.5765 42.7135 10.5463 42.2842 10.5381C41.4429 10.5381 40.8769 10.731 40.5853 11.1159" fill="black"></path><path id="Vector_2" d="M55.7648 13.8138L54.1293 25.8229H51.0656L51.014 24.4716C49.9933 25.6063 48.701 26.174 47.1388 26.174C45.8773 26.174 44.9155 25.8357 44.2544 25.1601C43.5933 24.4844 43.2637 23.5537 43.2637 22.366C43.2637 22.0634 43.2899 21.7425 43.3416 21.4042L44.3966 13.8138H48.0915L47.1135 20.8456C47.0963 20.9672 47.0881 21.1363 47.0881 21.353C47.0881 22.4182 47.6586 22.9512 48.8006 22.9512C49.4355 22.9512 49.9589 22.7519 50.371 22.3532C50.783 21.9546 51.0321 21.417 51.1172 20.7414L52.0962 13.8138H55.7658H55.7648Z" fill="black"></path><path id="Vector_3" d="M65.793 18.4018C65.7414 17.7956 65.5104 17.3147 65.0975 16.959C64.6854 16.6043 64.1701 16.426 63.5525 16.426C62.8995 16.426 62.3417 16.6034 61.8789 16.959C61.4161 17.3147 61.1327 17.7947 61.0294 18.4018H65.793ZM68.1295 24.095C67.5417 24.7359 66.7991 25.2433 65.9026 25.6154C65.0051 25.9876 64.0469 26.1741 63.0254 26.1741C61.8327 26.1741 60.7876 25.9208 59.891 25.4143C58.9945 24.9069 58.3017 24.1965 57.8127 23.2822C57.3236 22.3679 57.0791 21.3174 57.0791 20.1307C57.0791 18.8306 57.3644 17.6722 57.9349 16.6536C58.5054 15.6351 59.2861 14.8388 60.2778 14.2619C61.2694 13.6859 62.3697 13.3979 63.5796 13.3979C64.7895 13.3979 65.7685 13.6447 66.6696 14.1385C67.5707 14.6322 68.2698 15.3325 68.7688 16.2376C69.266 17.1428 69.5151 18.1723 69.5151 19.3243C69.5151 19.8527 69.4462 20.351 69.3095 20.8191H60.6318C60.6318 21.5121 60.861 22.0753 61.3201 22.5087C61.7793 22.9421 62.3869 23.1588 63.1422 23.1588C63.6648 23.1588 64.1529 23.0481 64.603 22.8278C65.0531 22.6065 65.39 22.3185 65.6137 21.9638H69.2307C69.0849 22.7437 68.7172 23.4541 68.1295 24.0959" fill="black"></path><path id="Vector_4" d="M80.2125 13.7097L79.7878 17.0112C79.5569 16.9591 79.1611 16.9335 78.6033 16.9335C77.6505 16.9335 76.8953 17.2004 76.3374 17.7325C75.7795 18.2656 75.4282 19.0473 75.2824 20.0786L74.4972 25.8239H70.8022L72.4632 13.8148H75.8103L75.8619 15.2576C76.1454 14.7465 76.5674 14.3396 77.1298 14.0361C77.6913 13.7326 78.3162 13.5817 79.0026 13.5817C79.5089 13.5817 79.9128 13.6247 80.2134 13.7115" fill="black"></path><path id="Vector_5" d="M89.1718 16.8813H86.9322L85.697 25.823H82.0274L83.2636 16.8813H81.0493L81.4994 13.8139H83.6883L84.113 10.7072H87.808L87.3832 13.8139H89.5975L89.1718 16.8813Z" fill="black"></path><path id="Vector_6" d="M98.6282 21.898C99.2332 21.2836 99.5356 20.5073 99.5356 19.572C99.5356 18.7227 99.2839 18.0406 98.7822 17.525C98.2805 17.0093 97.6339 16.7515 96.8451 16.7515C95.9521 16.7515 95.2095 17.0523 94.6172 17.6548C94.025 18.2573 93.7288 19.0262 93.7288 19.9615C93.7288 20.8109 93.9806 21.4993 94.4823 22.0278C94.984 22.5563 95.6306 22.8205 96.4203 22.8205C97.287 22.8205 98.0233 22.5133 98.6282 21.898ZM104.144 13.8139L102.458 25.823H98.8021L98.9561 24.575C98.5186 25.0687 97.9563 25.4591 97.2698 25.7453C96.5833 26.0314 95.8452 26.1741 95.0555 26.1741C94.0512 26.1741 93.1592 25.929 92.3776 25.4399C91.597 24.9508 90.992 24.2614 90.5619 23.3736C90.1335 22.4859 89.918 21.4655 89.918 20.3126C89.918 18.996 90.1951 17.8102 90.7484 16.7579C91.3018 15.7055 92.0616 14.8818 93.027 14.2884C93.9923 13.695 95.0628 13.3979 96.2383 13.3979C97.114 13.3979 97.9164 13.5652 98.6454 13.898C99.3745 14.2317 99.9631 14.7108 100.41 15.3343L101.066 13.8139H104.143H104.144Z" fill="black"></path><path id="Vector_7" d="M112.436 11.1168C112.144 11.5027 111.947 11.9945 111.844 12.5916L111.69 13.813H114.561L114.135 16.8805H111.264L110.056 25.8221H106.4L107.596 16.8805H105.433L105.858 13.813H108.02L108.252 12.0064C108.466 10.4119 109.053 9.24255 110.009 8.49741C110.966 7.75227 112.209 7.37924 113.736 7.37924C114.354 7.37924 114.908 7.43958 115.397 7.56118L115.011 10.6286C114.856 10.5765 114.564 10.5463 114.135 10.5381C113.294 10.5381 112.728 10.731 112.436 11.1159" fill="black"></path><path id="Vector_8" d="M117.396 13.8138H121.091L119.431 25.8229H115.736L117.396 13.8138Z" fill="black"></path><path id="Vector_9" d="M130.515 16.8813H128.275L127.039 25.823H123.371L124.607 16.8813H122.392L122.843 13.8139H125.031L125.456 10.7072H129.151L128.726 13.8139H130.941L130.515 16.8813Z" fill="black"></path><path id="Vector_10" d="M16.4078 4C15.4632 4 14.6373 4.64274 14.3964 5.56525L12.8994 11.306L19.2315 11.2768H25.4413C31.6521 11.3271 33.6408 4 33.6408 4H16.4078Z" fill="black"></path><path id="Vector_11" d="M12.4264 18.5517C11.5805 18.5517 10.8406 19.1267 10.626 19.9533L9.08643 25.8577L15.4185 25.8284H21.6727C28.0048 25.8284 29.8287 18.5526 29.8287 18.5526H12.4264V18.5517Z" fill="black"></path><path id="Vector_12" d="M4.70112 18.5518L9.6621 18.5755C10.4464 18.5792 11.1328 18.048 11.3339 17.2827L12.8997 11.3061L0.361386 11.2759C-1.54313 18.5518 4.70021 18.5518 4.70021 18.5518" fill="black"></path><path id="Vector_13" d="M5.81921 32.969C6.56453 33.1299 7.2999 32.6472 7.49551 31.9039L9.08668 25.8577L2.837 25.8276C2.837 25.8276 1.22047 31.9761 5.81921 32.969Z" fill="black"></path><circle id="Ellipse 5" cx="144.603" cy="17.957" r="3.55745" transform="rotate(0.74002 144.603 17.957)" fill="black"></circle></g></svg>